<svg  viewBox="0 0 145 18" fill="none" xmlns="http://www.w3.org/2000/svg">
<path d="M144.389 11.4751C144.639 10.8211 146.638 8.90546 140.265 9.27923C133.704 8.81202 126.769 9.39608 119.084 8.76537C119.084 8.53176 121.145 8.81202 120.521 8.20471C99.7138 4.67732 116.522 6.17236 130.893 5.16789C130.455 3.97652 134.767 1.78067 127.894 2.20115C103.9 2.31795 81.344 1.40691 57.038 1.36019C44.9164 1.07987 31.3577 -0.0881343 18.0488 0.00530582C33.4196 1.45363 49.6652 1.89747 66.6604 2.48147C62.9114 2.43475 58.2252 2.36468 53.2892 2.27123C53.164 2.27123 53.1017 2.27123 52.9768 2.27123C52.6019 2.69171 51.852 2.50483 49.1652 2.50483C44.7915 1.50035 38.1684 1.57043 31.4201 1.36019C32.9198 1.75731 36.4188 1.64051 39.8553 1.96755C34.2318 2.55155 27.6086 1.05651 20.2982 1.64051C21.1729 1.85075 19.9233 1.82739 16.4243 2.20115C17.8614 2.50483 19.4859 2.48147 21.048 2.73843C19.4859 2.97203 18.9236 2.76179 15.5495 2.94867C11.1757 1.89747 2.8655 7.20021 11.7381 6.03221C12.8003 6.10229 12.1754 6.19572 14.3623 6.24245C14.7997 6.21909 15.3621 6.47605 15.5495 6.12565C15.2371 6.03221 15.5495 6.10229 14.6748 6.00885C14.6748 6.00885 14.7372 6.03221 14.7997 6.03221C14.5498 6.05557 14.1749 5.79861 14.4248 6.00885C14.7997 5.51828 16.9241 6.05557 19.1735 5.565C27.1088 5.58837 35.4189 6.59284 44.4166 7.08341C47.4158 7.52725 52.0395 7.78421 56.4133 7.92438C56.1633 7.9711 55.1636 7.99443 54.1639 8.25143C53.7264 7.10677 42.4171 8.81202 45.6037 9.27923C46.2285 9.34936 52.1644 9.67641 45.9161 9.60629C32.4823 9.67641 16.5492 7.71413 2.99047 9.67641C-4.13258 13.741 2.05323 11.1247 15.3621 11.919C16.3618 11.9657 17.299 12.0591 21.2355 12.3628C25.9217 13.0402 33.4196 13.0169 38.8557 13.8111C31.9824 13.6476 24.4221 12.5964 16.8616 12.3394C-19.9407 13.5308 90.2165 19.2307 110.586 17.759C116.147 17.7824 123.145 17.7122 129.955 17.5253C144.702 18.4598 149.888 13.4607 122.333 15.3295C92.4659 14.7221 59.9747 14.6988 29.3582 12.246C58.7876 12.503 90.6538 13.7176 120.895 13.0169C128.643 13.0402 136.141 12.7366 144.951 12.4562C144.889 12.1292 145.326 11.7554 144.389 11.4751ZM42.792 14.0447C42.7294 14.0447 42.7294 14.0214 42.7294 14.0214C43.1044 14.0447 43.4793 14.0447 43.8542 14.0681C43.6042 14.0447 43.7293 14.1148 42.792 14.0447ZM46.9158 14.2083C46.291 14.1381 46.2285 14.255 45.0414 14.1148C45.6663 14.1615 46.291 14.1849 46.9158 14.2083ZM42.6045 14.0214H42.6671C42.5422 14.0914 42.6671 14.0214 42.6045 14.0214ZM53.6015 9.13907C53.4766 8.97558 53.6015 9.13907 53.0391 8.90546C53.3515 8.90546 53.7264 8.90546 53.6015 9.13907ZM70.347 2.55155C69.8471 2.57492 69.2847 2.57492 68.7849 2.55155C69.2847 2.55155 69.8471 2.55155 70.347 2.55155ZM42.2922 6.03221C41.2299 5.77525 34.8568 6.33589 34.9817 5.70516C43.9791 6.00885 55.1636 5.93876 64.7234 6.75637C64.786 6.70965 64.8484 6.73301 64.7234 6.63957C64.0987 6.82644 61.4119 7.01333 65.2858 7.08341C58.6001 6.75637 49.7901 6.47605 42.2922 6.03221ZM10.4259 11.6854C10.4884 11.6854 10.4884 11.6854 10.6134 11.7321C10.5509 11.7087 10.4884 11.6854 10.4259 11.6854Z" fill="#FFCD43"/>
</svg>
