<svg viewBox="0 0 22 17" fill="none" xmlns="http://www.w3.org/2000/svg">
<path d="M21.5079 1.87724C21.4075 1.15459 20.9752 0.728134 20.4178 0.469944C20.1856 0.262824 19.8776 0.147274 19.5684 0.202514C19.1441 0.117954 18.7055 0.0832638 18.3147 0.0614838C16.2354 -0.0560662 14.1155 0.289144 12.0307 0.300454C8.36877 0.321374 4.70847 0.426854 1.04618 0.433934C0.745281 0.434314 0.516012 0.542334 0.349062 0.704284C0.140643 0.872544 -0.000842518 1.12989 3.77599e-06 1.4801C0.0137752 6.27058 0.265279 11.0569 0.279127 15.847C0.28082 16.4383 0.754513 16.8656 1.3253 16.8932C4.5169 17.0493 7.70597 16.915 10.8959 16.7798C13.6246 16.6643 16.5668 16.9807 19.2596 16.6153C23.3513 16.0604 21.7055 9.73758 21.5051 6.97524C21.3807 5.26965 21.746 3.58953 21.5079 1.87724ZM14.9495 2.30193C15.2662 2.27639 16.5145 2.10567 17.6238 2.06843C15.9897 3.97328 14.2757 6.03708 11.9001 6.70704C10.2066 7.1845 8.65789 5.16756 7.46108 4.2444C6.62633 3.59999 5.69187 3.05728 4.73948 2.54051C8.14781 2.56097 11.5804 2.57105 14.9495 2.30193ZM2.35762 14.8306C2.32208 11.0624 2.1756 7.29583 2.11912 3.52759C3.88126 4.51137 5.67979 5.46006 7.22473 6.74766C7.22181 6.75312 7.21804 6.75643 7.21512 6.76189C5.71618 9.52538 3.70177 11.9508 2.4351 14.8327C2.4091 14.8323 2.38355 14.8315 2.35762 14.8306ZM16.8082 14.5222C12.768 14.4155 8.7366 14.7959 4.69763 14.8478C5.87305 12.4584 7.60003 10.3648 8.89809 8.03938C9.82201 8.62608 10.8389 8.99268 12.0156 8.79768C12.6701 8.68928 13.2797 8.48138 13.8568 8.20478C15.7537 9.97818 17.0994 12.2295 18.0598 14.6319L18.0607 14.6336C17.5777 14.6051 17.0995 14.5302 16.8082 14.5222ZM19.7466 13.2911C18.7507 10.9875 17.4543 8.82198 15.6679 7.0494C17.1233 5.88529 18.3699 4.34619 19.5926 2.97112C19.7466 4.25664 19.3445 5.70534 19.4123 6.97616C19.496 8.54578 19.7065 10.105 19.7722 11.6767C19.7948 12.214 19.7943 12.7551 19.7466 13.2911Z" fill="#F4AE45"/>
</svg>
