<svg width="46" height="46" viewBox="0 0 46 46" fill="none" xmlns="http://www.w3.org/2000/svg">
<g clip-path="url(#clip0_92_718)">
<path d="M0 23C0 35.7025 10.2975 46 23 46C35.7025 46 46 35.7025 46 23C46 10.2975 35.7025 0 23 0C10.2975 0 0 10.2975 0 23Z" fill="#1877F2"/>
<path d="M34.5 23C34.5 16.675 29.325 11.5 23 11.5C16.675 11.5 11.5 16.675 11.5 23C11.5 28.75 15.6687 33.4937 21.1312 34.3563V26.3062H18.2562V23H21.1312V20.4125C21.1312 17.5375 22.8563 15.9563 25.4438 15.9563C26.7375 15.9563 28.0312 16.2438 28.0312 16.2438V19.1188H26.5938C25.1562 19.1188 24.725 19.9812 24.725 20.8438V23H27.8875L27.3125 26.3062H24.5813V34.5C30.3313 33.6375 34.5 28.75 34.5 23Z" fill="white"/>
</g>
<defs>
<clipPath id="clip0_92_718">
<rect width="46" height="46" fill="white"/>
</clipPath>
</defs>
</svg>
