<svg width="46" height="46" viewBox="0 0 46 46" fill="none" xmlns="http://www.w3.org/2000/svg">
<g clip-path="url(#clip0_92_714)">
<path d="M46 23C46 10.2975 35.7025 0 23 0C10.2975 0 0 10.2975 0 23C0 35.7025 10.2975 46 23 46C35.7025 46 46 35.7025 46 23Z" fill="url(#paint0_linear_92_714)"/>
<path d="M26.3296 23.0006C26.3296 23.659 26.1343 24.3026 25.7685 24.8501C25.4027 25.3975 24.8828 25.8242 24.2745 26.0762C23.6663 26.3281 22.9969 26.394 22.3512 26.2656C21.7054 26.1372 21.1123 25.8201 20.6467 25.3545C20.1811 24.889 19.8641 24.2958 19.7356 23.6501C19.6072 23.0043 19.6731 22.335 19.9251 21.7267C20.177 21.1184 20.6037 20.5985 21.1512 20.2327C21.6986 19.8669 22.3422 19.6717 23.0006 19.6717C23.8827 19.6744 24.7278 20.026 25.3515 20.6497C25.9752 21.2734 26.3268 22.1186 26.3296 23.0006ZM33.4036 18.4233V27.5779C33.4036 29.123 32.7898 30.6048 31.6973 31.6973C30.6048 32.7898 29.123 33.4036 27.5779 33.4036H18.4233C16.8783 33.4036 15.3965 32.7898 14.304 31.6973C13.2114 30.6048 12.5977 29.123 12.5977 27.5779V18.4233C12.5977 16.8783 13.2114 15.3965 14.304 14.304C15.3965 13.2114 16.8783 12.5977 18.4233 12.5977H27.5779C29.123 12.5977 30.6048 13.2114 31.6973 14.304C32.7898 15.3965 33.4036 16.8783 33.4036 18.4233ZM27.994 23.0006C27.994 22.013 27.7012 21.0476 27.1525 20.2264C26.6038 19.4053 25.8239 18.7652 24.9115 18.3873C23.9991 18.0094 22.9951 17.9105 22.0264 18.1031C21.0578 18.2958 20.1681 18.7714 19.4697 19.4697C18.7714 20.1681 18.2958 21.0578 18.1031 22.0264C17.9105 22.9951 18.0094 23.9991 18.3873 24.9115C18.7652 25.8239 19.4053 26.6038 20.2264 27.1525C21.0476 27.7012 22.013 27.994 23.0006 27.994C24.325 27.994 25.5951 27.4679 26.5315 26.5315C27.4679 25.5951 27.994 24.325 27.994 23.0006ZM29.6585 17.5911C29.6585 17.3442 29.5853 17.1028 29.4481 16.8975C29.311 16.6922 29.116 16.5322 28.8879 16.4377C28.6598 16.3433 28.4088 16.3185 28.1666 16.3667C27.9245 16.4149 27.702 16.5338 27.5274 16.7084C27.3529 16.8829 27.234 17.1054 27.1858 17.3475C27.1376 17.5897 27.1623 17.8407 27.2568 18.0688C27.3513 18.2969 27.5113 18.4919 27.7166 18.629C27.9219 18.7662 28.1633 18.8394 28.4102 18.8394C28.7412 18.8394 29.0588 18.7079 29.2929 18.4738C29.527 18.2397 29.6585 17.9222 29.6585 17.5911Z" fill="white"/>
</g>
<defs>
<linearGradient id="paint0_linear_92_714" x1="0" y1="0" x2="46" y2="45.2812" gradientUnits="userSpaceOnUse">
<stop stop-color="#330F99"/>
<stop offset="1" stop-color="#C318C7"/>
</linearGradient>
<clipPath id="clip0_92_714">
<rect width="46" height="46" fill="white"/>
</clipPath>
</defs>
</svg>
