<svg width="46" height="46" viewBox="0 0 46 46" fill="none" xmlns="http://www.w3.org/2000/svg">
<g clip-path="url(#clip0_92_705)">
<path d="M46 23C46 10.2975 35.7025 0 23 0C10.2975 0 0 10.2975 0 23C0 35.7025 10.2975 46 23 46C35.7025 46 46 35.7025 46 23Z" fill="#0A66C2"/>
<path d="M30.7681 13.0137C31.3567 13.0137 31.9211 13.2475 32.3373 13.6637C32.7535 14.0799 32.9874 14.6444 32.9874 15.233V30.7681C32.9874 31.3567 32.7535 31.9211 32.3373 32.3373C31.9211 32.7535 31.3567 32.9874 30.7681 32.9874H15.233C14.6444 32.9874 14.0799 32.7535 13.6637 32.3373C13.2475 31.9211 13.0137 31.3567 13.0137 30.7681V15.233C13.0137 14.6444 13.2475 14.0799 13.6637 13.6637C14.0799 13.2475 14.6444 13.0137 15.233 13.0137H30.7681ZM30.2132 30.2132V24.3321C30.2132 23.3727 29.8321 22.4526 29.1537 21.7742C28.4753 21.0958 27.5552 20.7146 26.5958 20.7146C25.6526 20.7146 24.554 21.2917 24.0214 22.1572V20.9255H20.9255V30.2132H24.0214V24.7427C24.0214 23.8882 24.7094 23.1892 25.5638 23.1892C25.9758 23.1892 26.371 23.3528 26.6623 23.6442C26.9536 23.9355 27.1173 24.3306 27.1173 24.7427V30.2132H30.2132ZM17.3191 19.1833C17.8135 19.1833 18.2877 18.9869 18.6373 18.6373C18.9869 18.2877 19.1833 17.8135 19.1833 17.3191C19.1833 16.2871 18.3511 15.4438 17.3191 15.4438C16.8217 15.4438 16.3448 15.6414 15.9931 15.9931C15.6414 16.3448 15.4438 16.8217 15.4438 17.3191C15.4438 18.3511 16.2871 19.1833 17.3191 19.1833ZM18.8615 30.2132V20.9255H15.7878V30.2132H18.8615Z" fill="white"/>
</g>
<defs>
<clipPath id="clip0_92_705">
<rect width="46" height="46" fill="white"/>
</clipPath>
</defs>
</svg>
