<svg  viewBox="0 0 51 46" fill="none" xmlns="http://www.w3.org/2000/svg">
<path d="M38.8157 12.7154C38.1795 6.01714 32.4525 0.736816 25.453 0.736816C20.3622 0.736816 15.5896 3.73145 13.3628 8.30204C13.0446 9.01176 13.2833 9.7994 13.999 10.1146C14.7146 10.4298 15.5103 10.1939 15.8284 9.48422C17.5785 5.85918 21.396 3.4949 25.453 3.4949C31.3387 3.4949 36.1113 8.22349 36.1113 14.0548V15.3949H37.4638C43.3495 15.3949 48.1222 20.1234 48.1222 25.9548C48.1222 31.7869 43.3495 36.5147 37.3838 36.5147H36.0319V42.504C33.4862 42.504 31.4187 40.4556 31.4187 37.9334V36.594H13.4421C7.5564 36.594 2.78382 31.8654 2.78382 26.0333C2.78382 20.202 7.5564 15.4735 13.4421 15.4735H25.2142C26.0099 15.4735 26.5668 14.8431 26.5668 14.1341C26.5668 13.4244 25.9298 12.794 25.2142 12.794H13.4421C6.04513 12.7153 0 18.6261 0 25.9548C0 33.2842 6.04513 39.2734 13.4421 39.2734H28.873C29.5093 42.6619 32.5318 45.2627 36.1113 45.2627H38.8951V39.1941C45.6565 38.5638 50.9853 32.8897 50.9853 25.9548C50.9853 19.0985 45.6565 13.4244 38.8157 12.7154Z" fill="#113F82"/>
</svg>
