<svg  viewBox="0 0 18 19" fill="none" xmlns="http://www.w3.org/2000/svg">
<path d="M12.3738 11.4596C11.9832 11.069 11.3501 11.069 10.9596 11.4596C10.569 11.8501 10.569 12.4832 10.9596 12.8738L12.3738 11.4596ZM16.2929 18.2071C16.6834 18.5976 17.3166 18.5976 17.7071 18.2071C18.0976 17.8166 18.0976 17.1834 17.7071 16.7929L16.2929 18.2071ZM7.22222 12.9444C4.33807 12.9444 2 10.6064 2 7.72222H0C0 11.7109 3.2335 14.9444 7.22222 14.9444V12.9444ZM2 7.72222C2 4.83807 4.33807 2.5 7.22222 2.5V0.5C3.2335 0.5 0 3.7335 0 7.72222H2ZM7.22222 2.5C10.1064 2.5 12.4444 4.83807 12.4444 7.72222H14.4444C14.4444 3.7335 11.2109 0.5 7.22222 0.5V2.5ZM12.4444 7.72222C12.4444 10.6064 10.1064 12.9444 7.22222 12.9444V14.9444C11.2109 14.9444 14.4444 11.7109 14.4444 7.72222H12.4444ZM10.9596 12.8738L16.2929 18.2071L17.7071 16.7929L12.3738 11.4596L10.9596 12.8738Z" fill="#9CBACD"/>
</svg>
