<svg  viewBox="0 0 16 23" fill="none" xmlns="http://www.w3.org/2000/svg">
<path d="M1.90237 14.5371C1.88899 14.5504 1.87692 14.5647 1.86485 14.579C1.74383 14.7076 1.65097 14.8787 1.61164 15.1082C1.36558 16.5368 -0.1577 18.5226 0.57384 19.978C1.35581 21.5343 2.82991 22.0028 4.46838 22.1971C8.0401 22.62 10.6856 19.3672 12.3106 16.6591C14.1178 13.6479 15.2789 10.2566 15.5969 6.75912C15.9157 3.25351 13.2997 0.947857 10.0183 0.261548C9.448 0.14184 8.7817 0.420501 8.6451 1.04129C8.3271 2.48592 7.5447 3.69663 6.91558 5.01711C6.64094 5.59316 6.77805 6.18398 7.3162 6.54442C9.4642 7.98461 7.1045 11.3316 6.30866 13.0831C6.06662 13.6163 5.8139 14.1477 5.54238 14.6679C5.48253 14.6652 5.42268 14.6626 5.34854 14.6626C5.10428 14.6139 4.85821 14.5751 4.61124 14.546C3.96771 14.4741 3.33271 14.3576 2.68828 14.2888C2.37078 14.2549 2.12824 14.3428 1.95229 14.4955C1.93497 14.5085 1.91797 14.5224 1.90237 14.5371ZM3.43854 16.6592C4.62019 16.9205 6.27648 17.3643 6.98561 16.5887C7.8524 15.6406 8.2999 14.0834 8.8081 12.9331C10.0058 10.2224 11.542 7.47868 9.2743 5.28116C9.7052 4.44246 10.1447 3.61723 10.4684 2.73749C11.0499 2.96566 11.5973 3.26 12.1404 3.61411C13.539 4.52605 13.4425 5.89563 13.3099 7.35544C13.1135 9.51684 12.3217 11.6657 11.3968 13.6101C10.4689 15.5616 9.3466 17.418 7.7269 18.8716C6.55465 19.9237 5.04261 20.1461 3.55505 19.7875C2.3418 19.4953 2.97901 17.8399 3.43854 16.6592Z" fill="#F4AE45"/>
</svg>
