<svg  viewBox="0 0 174 174" fill="none" xmlns="http://www.w3.org/2000/svg">
<path d="M10.701 41.0052C7.25491 46.2669 4.53432 52.073 2.35785 58.0605L62.0295 80.3775L0 111.222C1.9951 118.843 5.07844 126.282 9.06864 132.995L70.1913 98.5214L44.0736 166.561C48.0638 168.738 52.4167 170.553 56.7697 172.004C58.9462 172.73 61.1226 173.456 63.4805 174L87.0589 112.855L134.76 161.662C140.745 157.67 146.368 152.772 151.265 147.328L101.025 91.6267L172.667 103.602C173.937 96.5255 174.299 89.4494 173.755 82.5547L103.201 77.6559L158.883 38.6465C154.348 32.1147 149.088 25.9458 142.922 20.684L91.5933 61.1449L109.005 3.08446C103.02 1.45151 96.8531 0.362878 90.8678 0L76.9021 57.5162L53.6863 5.80605C48.7893 7.80188 43.8922 9.97914 39.3579 12.8822L67.2893 64.5923L10.701 41.0052Z" fill="#8AA7E4"/>
</svg>
