<svg width="46" height="46" viewBox="0 0 46 46" fill="none" xmlns="http://www.w3.org/2000/svg">
<g clip-path="url(#clip0_92_710)">
<path d="M46 23C46 10.2975 35.7025 0 23 0C10.2975 0 0 10.2975 0 23C0 35.7025 10.2975 46 23 46C35.7025 46 46 35.7025 46 23Z" fill="#1E1E1E"/>
<path d="M28.1048 16.1429C27.3463 15.2769 26.9283 14.1649 26.9286 13.0137H23.4998V26.7733C23.4733 27.5179 23.159 28.2232 22.6229 28.7407C22.0868 29.2581 21.3709 29.5473 20.6258 29.5474C19.0501 29.5474 17.7407 28.2603 17.7407 26.6624C17.7407 24.7538 19.5827 23.3223 21.4802 23.9104V20.4039C17.6519 19.8935 14.3008 22.8674 14.3008 26.6624C14.3008 30.3575 17.3634 32.9874 20.6147 32.9874C24.099 32.9874 26.9286 30.1578 26.9286 26.6624V19.6827C28.319 20.6812 29.9883 21.2169 31.7001 21.214V17.7852C31.7001 17.7852 29.6139 17.885 28.1048 16.1429Z" fill="white"/>
</g>
<defs>
<clipPath id="clip0_92_710">
<rect width="46" height="46" fill="white"/>
</clipPath>
</defs>
</svg>
