<svg width="46" height="46" viewBox="0 0 46 46" fill="none" xmlns="http://www.w3.org/2000/svg">
<g clip-path="url(#clip0_92_697)">
<path d="M46 23C46 10.2975 35.7025 0 23 0C10.2975 0 0 10.2975 0 23C0 35.7025 10.2975 46 23 46C35.7025 46 46 35.7025 46 23Z" fill="#71B2FF"/>
<path d="M34.6074 16.3423C33.753 16.7307 32.832 16.9859 31.8777 17.108C32.8542 16.5199 33.6087 15.5878 33.9638 14.467C33.0428 15.0219 32.0219 15.4102 30.9456 15.6322C30.0689 14.6779 28.8372 14.123 27.4391 14.123C24.8314 14.123 22.7009 16.2536 22.7009 18.8834C22.7009 19.2607 22.7453 19.6269 22.8229 19.9709C18.8726 19.7712 15.355 17.8737 13.0136 14.9997C12.6031 15.6987 12.37 16.5199 12.37 17.3854C12.37 19.0388 13.2023 20.5035 14.4895 21.3358C13.7016 21.3358 12.9693 21.1138 12.3257 20.7809V20.8142C12.3257 23.1223 13.9679 25.0531 16.1429 25.4859C15.4446 25.6769 14.7115 25.7035 14.0012 25.5635C14.3026 26.5095 14.8929 27.3372 15.689 27.9303C16.4852 28.5235 17.4472 28.8522 18.4398 28.8703C16.7572 30.2023 14.6715 30.9224 12.5254 30.912C12.1481 30.912 11.7708 30.8898 11.3936 30.8455C13.5019 32.1992 16.0097 32.9871 18.695 32.9871C27.4391 32.9871 32.2439 25.73 32.2439 19.4383C32.2439 19.2274 32.2439 19.0277 32.2328 18.8169C33.1649 18.1511 33.9638 17.3077 34.6074 16.3423Z" fill="white"/>
</g>
<defs>
<clipPath id="clip0_92_697">
<rect width="46" height="46" fill="white"/>
</clipPath>
</defs>
</svg>
