<svg width="46" height="46" viewBox="0 0 46 46" fill="none" xmlns="http://www.w3.org/2000/svg">
<g clip-path="url(#clip0_92_701)">
<path d="M0 23C0 35.7025 10.2975 46 23 46C35.7025 46 46 35.7025 46 23C46 10.2975 35.7025 0 23 0C10.2975 0 0 10.2975 0 23Z" fill="#FF0000"/>
<path d="M33.925 17.393C33.6375 16.3867 32.9188 15.668 31.9125 15.3805C30.1875 14.9492 22.8562 14.9492 22.8562 14.9492C22.8562 14.9492 15.6688 14.9492 13.8 15.3805C12.7938 15.668 12.075 16.3867 11.7875 17.393C11.5 19.2617 11.5 22.9992 11.5 22.9992C11.5 22.9992 11.5 26.7367 11.9312 28.6055C12.2188 29.6117 12.9375 30.3305 13.9437 30.618C15.6687 31.0492 23 31.0492 23 31.0492C23 31.0492 30.1875 31.0492 32.0562 30.618C33.0625 30.3305 33.7813 29.6117 34.0688 28.6055C34.5 26.7367 34.5 22.9992 34.5 22.9992C34.5 22.9992 34.5 19.2617 33.925 17.393ZM20.7 26.4492V19.5492L26.7375 22.9992L20.7 26.4492Z" fill="white"/>
</g>
<defs>
<clipPath id="clip0_92_701">
<rect width="46" height="46" fill="white"/>
</clipPath>
</defs>
</svg>
